<?xml version="1.0" encoding="UTF-8" standalone="no"?>
<!-- Created with Inkscape (http://www.inkscape.org/) -->

<svg
   width="512"
   height="512"
   viewBox="0 0 512 512"
   version="1.1"
   id="svg1"
   xml:space="preserve"
   inkscape:version="1.4 (86a8ad7, 2024-10-11)"
   sodipodi:docname="icons.svg"
   xmlns:inkscape="http://www.inkscape.org/namespaces/inkscape"
   xmlns:sodipodi="http://sodipodi.sourceforge.net/DTD/sodipodi-0.dtd"
   xmlns:xlink="http://www.w3.org/1999/xlink"
   xmlns="http://www.w3.org/2000/svg"
   xmlns:svg="http://www.w3.org/2000/svg"><sodipodi:namedview
     id="namedview1"
     pagecolor="#ffffff"
     bordercolor="#666666"
     borderopacity="1.0"
     inkscape:showpageshadow="2"
     inkscape:pageopacity="0.0"
     inkscape:pagecheckerboard="0"
     inkscape:deskcolor="#d1d1d1"
     inkscape:document-units="px"
     showgrid="true"
     inkscape:zoom="0.93575344"
     inkscape:cx="207.31957"
     inkscape:cy="154.42102"
     inkscape:window-width="1920"
     inkscape:window-height="1009"
     inkscape:window-x="-8"
     inkscape:window-y="-8"
     inkscape:window-maximized="1"
     inkscape:current-layer="layer1"><inkscape:grid
       id="grid1"
       units="px"
       originx="0"
       originy="0"
       spacingx="2"
       spacingy="2"
       empcolor="#3f3fff"
       empopacity="0.25098039"
       color="#3f3fff"
       opacity="0.1254902"
       empspacing="8"
       enabled="true"
       visible="true" /></sodipodi:namedview><defs
     id="defs1" /><g
     inkscape:label="Layer 1"
     inkscape:groupmode="layer"
     id="layer1"><image
       width="9884.1328"
       height="5559.8267"
       preserveAspectRatio="none"
       xlink:href="blue-prince-sigil-complete.jpg"
       id="image1"
       x="-5959.709"
       y="-3924.6804"
       style="display:none" /><image
       width="372.51682"
       height="508.48532"
       preserveAspectRatio="none"
       xlink:href="blue-door.jpg"
       id="image1-9"
       x="65.889832"
       y="0.57810199"
       style="display:none;opacity:0.5" /><path
       style="display:none;fill:none;stroke:black;stroke-width:0.876956px;stroke-linecap:butt;stroke-linejoin:miter;stroke-opacity:1"
       d="M 228,32 H 284.12496 L 325.58701,102.15635 H 368.31278 V 410.84447 H 326.21907 L 284.12496,481.00091 H 228 L 185.9061,410.84447 H 143.81228 L 143.18023,102.15635 H 185.9061 Z"
       id="black"
       sodipodi:nodetypes="ccccccccccccc"
       inkscape:label="1.black-orinda-aries" /><path
       id="red"
       style="display:none;fill:none;stroke:black;stroke-opacity:1"
       inkscape:label="2-red-fenn-aries"
       inkscape:transform-center-x="0.38206019"
       inkscape:transform-center-y="-15.754992"
       d="M 96.322064,226.98148 L 159.02222,415.24932 L 357.45101,413.79588 L 417.38657,224.62976 L 256,109.17211 Z"
       sodipodi:nodetypes="cccccc" /><path
       style="display:none;fill:none;stroke:black;stroke-width:0.791453px;stroke-linecap:butt;stroke-linejoin:miter;stroke-opacity:1"
       d="M 85.388221,438.04822 H 433.62725 L 306.99488,70.814471 L 231.01547,248.09965 L 180.36241,165.78867 Z"
       id="yellow"
       sodipodi:nodetypes="cccccc"
       inkscape:label="3-yellow-arch-aries" /><path
       style="display:none;fill:none;stroke:black;stroke-width:0.833108px;stroke-linecap:butt;stroke-linejoin:miter;stroke-opacity:1"
       d="M 335.97832,255.48491 L 389.29723,442.10097 H 122.70268 L 176.02159,255.48491 L 122.70268,68.868854 H 389.29723 Z"
       id="purple"
       inkscape:label="4-purple-eraja"
       sodipodi:nodetypes="ccccccc" /><path
       style="display:none;fill:none;stroke:black;stroke-width:0.876956px;stroke-linecap:butt;stroke-linejoin:miter;stroke-opacity:1"
       d="M 256,433.86025 L 480.50049,181.29721 L 375.26613,97.109486 L 256,188.31288 L 122.70281,104.12518 L 31.499515,195.32847 Z"
       id="orange"
       sodipodi:nodetypes="ccccccc"
       inkscape:label="5-orange-corarica" /><path
       style="display:none;fill:none;stroke:black;stroke-width:0.876956px;stroke-linecap:butt;stroke-linejoin:miter;stroke-opacity:1"
       d="M 213.9063,384.78202 C 213.9063,384.78202 220.92188,342.68821 256,342.68821 C 291.07813,342.68821 298.09391,384.78202 298.09391,384.78202 L 473.48491,349.70389 C 473.48491,349.70389 480.50049,111.17211 256,111.17211 C 31.499515,111.17211 38.515195,349.70389 38.515195,349.70389 Z"
       id="white"
       sodipodi:nodetypes="czcczcc"
       inkscape:label="6-white-mora-jai" /><path
       style="display:inline;fill:none;stroke:black;stroke-width:0.876956px;stroke-linecap:butt;stroke-linejoin:miter;stroke-opacity:1"
       d="M 267.22891,380.0839 L 199.34666,447.96615 L 63.582156,312.20165 L 312.48374,63.300061 L 448.24824,199.06456 L 380.36599,266.94681 C 380.36599,266.94681 436.09232,323.55988 379.96705,379.68496 C 323.84186,435.81011 267.22891,380.0839 267.22891,380.0839 Z"
       id="pink"
       sodipodi:nodetypes="cccccczc"
       inkscape:label="7-pink-verra" /><path
       style="display:none;fill:none;stroke:black;stroke-width:0.876956px;stroke-linecap:butt;stroke-linejoin:miter;stroke-opacity:1"
       d="M 256,30.984406 L 438.40679,255.48491 L 256,479.98532 L 73.593318,255.48491 Z"
       id="green"
       inkscape:label="8-green-nuance"
       sodipodi:nodetypes="ccccc" /><path
       style="display:none;fill:none;stroke:black;stroke-width:0.876956px;stroke-linecap:butt;stroke-linejoin:miter;stroke-opacity:1"
       d="M 256,54 C 256,54 270.13504,138.75513 284.06243,166.25025 C 297.99014,193.74537 333.17203,208.34414 333.17203,208.34414 C 333.17203,208.34414 291.07813,264.46924 312.12518,313.57872 C 333.17203,362.68821 396.31288,362.68821 396.31288,362.68821 C 396.31288,362.68821 374.47753,388.04416 368.25025,404.78202 C 362.02298,421.51996 354.21898,446.87591 354.21898,446.87591 C 354.21898,446.87591 335.27547,425.82888 312.12518,425.82888 C 284.06243,425.82888 278.06178,453.8916 256,453.8916 C 233.93804,453.8916 227.93747,425.82888 199.87492,425.82888 C 171.8122,425.82888 157.78112,446.87591 157.78112,446.87591 C 157.78112,446.87591 149.97693,421.51996 143.74975,404.78202 C 137.52238,388.04416 115.68703,362.68821 115.68703,362.68821 C 115.68703,362.68821 178.82787,355.67261 199.87492,306.56312 C 220.92188,257.45354 178.82787,215.35975 178.82787,215.35975 C 178.82787,215.35975 199.87492,201.32847 220.92188,166.25025 C 241.96874,131.17211 256,54 256,54 Z"
       id="blue"
       sodipodi:nodetypes="czczczcsszczczczc"
       inkscape:label="9-blue-door" /></g></svg>
