<?xml version="1.0" encoding="UTF-8" standalone="no"?>
<!-- Created with Inkscape (http://www.inkscape.org/) -->

<svg
   width="512"
   height="512"
   viewBox="0 0 512 512"
   version="1.1"
   id="svg1"
   xml:space="preserve"
   inkscape:version="1.4 (86a8ad7, 2024-10-11)"
   sodipodi:docname="icons.svg"
   xmlns:inkscape="http://www.inkscape.org/namespaces/inkscape"
   xmlns:sodipodi="http://sodipodi.sourceforge.net/DTD/sodipodi-0.dtd"
   xmlns:xlink="http://www.w3.org/1999/xlink"
   xmlns="http://www.w3.org/2000/svg"
   xmlns:svg="http://www.w3.org/2000/svg"><sodipodi:namedview
     id="namedview1"
     pagecolor="#ffffff"
     bordercolor="#666666"
     borderopacity="1.0"
     inkscape:showpageshadow="2"
     inkscape:pageopacity="0.0"
     inkscape:pagecheckerboard="0"
     inkscape:deskcolor="#d1d1d1"
     inkscape:document-units="px"
     showgrid="true"
     inkscape:zoom="2.6467104"
     inkscape:cx="251.63312"
     inkscape:cy="254.089"
     inkscape:window-width="1920"
     inkscape:window-height="1009"
     inkscape:window-x="-8"
     inkscape:window-y="-8"
     inkscape:window-maximized="1"
     inkscape:current-layer="layer1"><inkscape:grid
       id="grid1"
       units="px"
       originx="0"
       originy="0"
       spacingx="2"
       spacingy="2"
       empcolor="#3f3fff"
       empopacity="0.25098039"
       color="#3f3fff"
       opacity="0.1254902"
       empspacing="8"
       enabled="true"
       visible="true" /></sodipodi:namedview><defs
     id="defs1" /><g
     inkscape:label="Layer 1"
     inkscape:groupmode="layer"
     id="layer1"><image
       width="9884.1328"
       height="5559.8267"
       preserveAspectRatio="none"
       xlink:href="blue-prince-sigil-complete.jpg"
       id="image1"
       x="-920.5791"
       y="-3866.9729"
       style="display:none" /><image
       width="3040.8528"
       height="1754.4468"
       preserveAspectRatio="none"
       xlink:href="mthollyslate.jpg"
       id="image1-9"
       x="-1264.1312"
       y="-494.12677"
       style="opacity:0.638" /><path
       style="display:none;fill:none;stroke:black;stroke-width:0.876956px;stroke-linecap:butt;stroke-linejoin:miter;stroke-opacity:1"
       d="M 228,32 H 284.12496 L 325.58701,102.15635 H 368.31278 V 410.84447 H 326.21907 L 284.12496,481.00091 H 228 L 185.9061,410.84447 H 143.81228 L 143.18023,102.15635 H 185.9061 Z"
       id="black"
       sodipodi:nodetypes="ccccccccccccc"
       inkscape:label="1.black-orinda-aries" /><path
       id="red"
       style="display:none;fill:none;stroke:black;stroke-opacity:1"
       inkscape:label="2-red-fenn-aries"
       inkscape:transform-center-x="0.38206019"
       inkscape:transform-center-y="-15.754992"
       d="M 96.322064,212.98148 L 159.02222,401.24932 L 357.45101,399.79588 L 417.38657,210.62976 L 256,95.17211 Z"
       sodipodi:nodetypes="cccccc" /><path
       style="display:none;fill:none;stroke:black;stroke-width:0.791453px;stroke-linecap:butt;stroke-linejoin:miter;stroke-opacity:1"
       d="M 89.388221,448.04822 H 437.62725 L 310.99488,80.814471 L 235.01547,258.09965 L 184.36241,175.78867 Z"
       id="yellow"
       sodipodi:nodetypes="cccccc"
       inkscape:label="3-yellow-arch-aries" /><path
       style="display:none;fill:none;stroke:black;stroke-width:0.833108px;stroke-linecap:butt;stroke-linejoin:miter;stroke-opacity:1"
       d="M 335.97832,255.48491 L 389.29723,442.10097 H 122.70268 L 176.02159,255.48491 L 122.70268,68.868854 H 389.29723 Z"
       id="purple"
       inkscape:label="4-purple-eraja"
       sodipodi:nodetypes="ccccccc" /><path
       style="display:none;fill:none;stroke:black;stroke-width:0.876956px;stroke-linecap:butt;stroke-linejoin:miter;stroke-opacity:1"
       d="M 256,432 L 480,192 L 384,96 L 256,192 L 128,96 L 32,192 Z"
       id="orange"
       sodipodi:nodetypes="ccccccc"
       inkscape:label="5-orange-corarica" /><path
       style="display:none;fill:none;stroke:black;stroke-width:0.876956px;stroke-linecap:butt;stroke-linejoin:miter;stroke-opacity:1"
       d="M 213.9063,384.78202 C 213.9063,384.78202 220.92188,342.68821 256,342.68821 C 291.07813,342.68821 298.09391,384.78202 298.09391,384.78202 L 473.48491,349.70389 C 473.48491,349.70389 480.50049,111.17211 256,111.17211 C 31.499515,111.17211 38.515195,349.70389 38.515195,349.70389 Z"
       id="white"
       sodipodi:nodetypes="czcczcc"
       inkscape:label="6-white-mora-jai" /><path
       style="display:none;fill:none;stroke:black;stroke-width:0.876956px;stroke-linecap:butt;stroke-linejoin:miter;stroke-opacity:1"
       d="M 267.22891,380.0839 L 199.34666,447.96615 L 63.582156,312.20165 L 312.48374,63.300061 L 448.24824,199.06456 L 380.36599,266.94681 C 380.36599,266.94681 436.09232,323.55988 379.96705,379.68496 C 323.84186,435.81011 267.22891,380.0839 267.22891,380.0839 Z"
       id="pink"
       sodipodi:nodetypes="cccccczc"
       inkscape:label="7-pink-verra" /><path
       style="display:none;fill:none;stroke:black;stroke-width:0.876956px;stroke-linecap:butt;stroke-linejoin:miter;stroke-opacity:1"
       d="M 256,30.984406 L 438.40679,255.48491 L 256,479.98532 L 73.593318,255.48491 Z"
       id="green"
       inkscape:label="8-green-nuance"
       sodipodi:nodetypes="ccccc" /><path
       style="display:inline;fill:none;stroke:black;stroke-width:0.876956px;stroke-linecap:butt;stroke-linejoin:miter;stroke-opacity:1"
       d="M 256,32 C 256,32 262.69547,86.446501 272,112 C 288.10605,156.23288 336,176 336,176 C 336,176 297.10408,191.72854 304,240 C 320,352 400,352 400,352 C 400,352 381.95812,365.08382 375.73085,392.50834 C 369.50358,419.93286 368,448 368,448 C 368,448 336,400 304,400 C 272,400 256,448 256,448 C 256,448 240.26716,399.86642 208,400 C 175.73284,400.13358 144,448 144,448 C 144,448 142.49633,416.19255 135.73482,390.90535 C 128.97331,365.61815 112,352 112,352 C 112,352 192,352 208,240 C 214.88498,191.80511 176,176 176,176 C 176,176 226.83276,150.35526 240,112 C 248.83005,86.27869 256,32 256,32 Z"
       id="blue"
       sodipodi:nodetypes="cscsczcsczczcscsc"
       inkscape:label="9-blue-door" /></g></svg>
