<?xml version="1.0" encoding="UTF-8" standalone="no"?>
<!-- Created with Inkscape (http://www.inkscape.org/) -->

<svg
   width="512"
   height="512"
   viewBox="0 0 512 512"
   version="1.1"
   id="svg1"
   xml:space="preserve"
   inkscape:version="1.4 (86a8ad7, 2024-10-11)"
   sodipodi:docname="icons.svg"
   xmlns:inkscape="http://www.inkscape.org/namespaces/inkscape"
   xmlns:sodipodi="http://sodipodi.sourceforge.net/DTD/sodipodi-0.dtd"
   xmlns:xlink="http://www.w3.org/1999/xlink"
   xmlns="http://www.w3.org/2000/svg"
   xmlns:svg="http://www.w3.org/2000/svg"><sodipodi:namedview
     id="namedview1"
     pagecolor="#ffffff"
     bordercolor="#666666"
     borderopacity="1.0"
     inkscape:showpageshadow="2"
     inkscape:pageopacity="0.0"
     inkscape:pagecheckerboard="0"
     inkscape:deskcolor="#d1d1d1"
     inkscape:document-units="px"
     showgrid="true"
     inkscape:zoom="1.3233552"
     inkscape:cx="256.16705"
     inkscape:cy="261.83446"
     inkscape:window-width="1920"
     inkscape:window-height="1009"
     inkscape:window-x="-8"
     inkscape:window-y="-8"
     inkscape:window-maximized="1"
     inkscape:current-layer="layer1"><inkscape:grid
       id="grid1"
       units="px"
       originx="0"
       originy="0"
       spacingx="2"
       spacingy="2"
       empcolor="#3f3fff"
       empopacity="0.25098039"
       color="#3f3fff"
       opacity="0.1254902"
       empspacing="16"
       enabled="true"
       visible="true" /></sodipodi:namedview><defs
     id="defs1" /><g
     inkscape:label="Layer 1"
     inkscape:groupmode="layer"
     id="layer1"><image
       width="9884.1328"
       height="5559.8267"
       preserveAspectRatio="none"
       xlink:href="blue-prince-sigil-complete.jpg"
       id="image1"
       x="-922.42554"
       y="-3882.8975"
       style="display:none" /><image
       width="372.51682"
       height="508.48532"
       preserveAspectRatio="none"
       xlink:href="blue-door.jpg"
       id="image1-9"
       x="65.889832"
       y="0.57810199"
       style="display:none;opacity:0.5" /><path
       style="fill:none;stroke:black;stroke-width:0.876956px;stroke-linecap:butt;stroke-linejoin:miter;stroke-opacity:1"
       d="M 228,32 H 284.12496 L 325.58701,102.15635 H 368.31278 V 410.84447 H 326.21907 L 284.12496,481.00091 H 228 L 185.9061,410.84447 H 143.81228 L 143.18023,102.15635 H 185.9061 Z"
       id="black"
       sodipodi:nodetypes="ccccccccccccc"
       inkscape:label="1.black-orinda-aries" /><path
       id="red"
       style="fill:none;stroke:black;stroke-opacity:1"
       inkscape:label="2-red-fenn-aries"
       inkscape:transform-center-x="0.38206019"
       inkscape:transform-center-y="-15.754992"
       d="M 96.322064,226.98148 L 159.02222,415.24932 L 357.45101,413.79588 L 417.38657,224.62976 L 256,109.17211 Z"
       sodipodi:nodetypes="cccccc" /><path
       style="fill:none;stroke:black;stroke-width:0.791453px;stroke-linecap:butt;stroke-linejoin:miter;stroke-opacity:1"
       d="M 85.388221,438.04822 H 433.62725 L 306.99488,70.814471 L 231.01547,248.09965 L 180.36241,165.78867 Z"
       id="yellow"
       sodipodi:nodetypes="cccccc"
       inkscape:label="3-yellow-arch-aries" /><path
       style="fill:none;stroke:black;stroke-width:0.833108px;stroke-linecap:butt;stroke-linejoin:miter;stroke-opacity:1"
       d="M 335.97832,255.48491 L 389.29723,442.10097 H 122.70268 L 176.02159,255.48491 L 122.70268,68.868854 H 389.29723 Z"
       id="purple"
       inkscape:label="4-purple-eraja"
       sodipodi:nodetypes="ccccccc" /><path
       style="fill:none;stroke:black;stroke-width:0.876956px;stroke-linecap:butt;stroke-linejoin:miter;stroke-opacity:1"
       d="M 256,415.86025 L 480.50049,163.29721 L 375.26613,79.109486 L 256,170.31288 L 122.70281,86.125176 L 31.499515,177.32847 Z"
       id="orange"
       sodipodi:nodetypes="ccccccc"
       inkscape:label="5-orange-corarica" /><path
       style="fill:none;stroke:black;stroke-width:0.876956px;stroke-linecap:butt;stroke-linejoin:miter;stroke-opacity:1"
       d="M 213.9063,384.78202 C 213.9063,384.78202 220.92188,342.68821 256,342.68821 C 291.07813,342.68821 298.09391,384.78202 298.09391,384.78202 L 473.48491,349.70389 C 473.48491,349.70389 480.50049,111.17211 256,111.17211 C 31.499515,111.17211 38.515195,349.70389 38.515195,349.70389 Z"
       id="white"
       sodipodi:nodetypes="czcczcc"
       inkscape:label="6-white-mora-jai" /><path
       style="fill:none;stroke:black;stroke-width:0.876956px;stroke-linecap:butt;stroke-linejoin:miter;stroke-opacity:1"
       d="M 256,377.76643 L 189.80791,440.90718 L 59.561949,307.60998 L 312.12518,62.062626 L 438.40679,188.34414 L 382.28142,251.48491 C 382.28142,251.48491 445.42248,328.65694 389.29721,384.78202 C 333.17203,440.90718 256,377.76643 256,377.76643 Z"
       id="pink"
       sodipodi:nodetypes="cccccczc"
       inkscape:label="7-pink-verra" /><path
       style="fill:none;stroke:black;stroke-width:0.876956px;stroke-linecap:butt;stroke-linejoin:miter;stroke-opacity:1"
       d="M 256,30.984406 L 438.40679,255.48491 L 256,479.98532 L 73.593318,255.48491 Z"
       id="green"
       inkscape:label="8-green-nuance"
       sodipodi:nodetypes="ccccc" /><path
       style="fill:none;stroke:black;stroke-width:0.876956px;stroke-linecap:butt;stroke-linejoin:miter;stroke-opacity:1"
       d="M 256,32 C 256,32 270.13504,116.75513 284.06243,144.25025 C 297.99014,171.74537 333.17203,186.34414 333.17203,186.34414 C 333.17203,186.34414 291.07813,242.46924 312.12518,291.57872 C 333.17203,340.68821 396.31288,340.68821 396.31288,340.68821 C 396.31288,340.68821 374.47753,366.04416 368.25025,382.78202 C 362.02298,399.51996 354.21898,424.87591 354.21898,424.87591 C 354.21898,424.87591 335.27547,403.82888 312.12518,403.82888 C 284.06243,403.82888 278.06178,431.8916 256,431.8916 C 233.93804,431.8916 227.93747,403.82888 199.87492,403.82888 C 171.8122,403.82888 157.78112,424.87591 157.78112,424.87591 C 157.78112,424.87591 149.97693,399.51996 143.74975,382.78202 C 137.52238,366.04416 115.68703,340.68821 115.68703,340.68821 C 115.68703,340.68821 178.82787,333.67261 199.87492,284.56312 C 220.92188,235.45354 178.82787,193.35975 178.82787,193.35975 C 178.82787,193.35975 199.87492,179.32847 220.92188,144.25025 C 241.96874,109.17211 256,32 256,32 Z"
       id="blue"
       sodipodi:nodetypes="czczczcsszczczczc"
       inkscape:label="9-blue-door" /></g></svg>
