<svg viewBox="0 0 512 512"><path d="M 256,32 C 256,32 270.13504,116.75513 284.06243,144.25025 C 297.99014,171.74537 333.17203,186.34414 333.17203,186.34414 C 333.17203,186.34414 291.07813,242.46924 312.12518,291.57872 C 333.17203,340.68821 396.31288,340.68821 396.31288,340.68821 C 396.31288,340.68821 374.47753,366.04416 368.25025,382.78202 C 362.02298,399.51996 354.21898,424.87591 354.21898,424.87591 C 354.21898,424.87591 335.27547,403.82888 312.12518,403.82888 C 284.06243,403.82888 278.06178,431.8916 256,431.8916 C 233.93804,431.8916 227.93747,403.82888 199.87492,403.82888 C 171.8122,403.82888 157.78112,424.87591 157.78112,424.87591 C 157.78112,424.87591 149.97693,399.51996 143.74975,382.78202 C 137.52238,366.04416 115.68703,340.68821 115.68703,340.68821 C 115.68703,340.68821 178.82787,333.67261 199.87492,284.56312 C 220.92188,235.45354 178.82787,193.35975 178.82787,193.35975 C 178.82787,193.35975 199.87492,179.32847 220.92188,144.25025 C 241.96874,109.17211 256,32 256,32 Z" /></svg>
